:SAMPLES-PER-SECOND 30
:FRAME-RANGE 1-3549
:FULLY-SPECIFIED
:DEGREES
1886
root  4.66254 39.1556 59.8233 -178.002 -20.4037 176.005
RightUpLeg  1.77417 -2.17435 4.25628
RightLeg  10.761 -4.69003 -1.50471
RightFoot  -15.1545 -0.308349 -6.1823
RightToes  -1.11029e-010 1.2921e-014 -6.02303e-014
Spine  6.5615 0.513909 6.36889
Spine1  -2.2224 1.50571 -4.21292
HEad  -5.59565 -17.6812 -0.164517
LeftShoulder1  1.53319 -0.432136 -32.903
LeftArm  5.46254 12.5941 -28.7024
LeftForeArm  5.37078 -7.71641 -15.6088
LeftHand  0.219577 0.0683851 -4.83991
RightShoulder  9.31648 12.436 51.1694
RightArm  40.9278 4.91722 18.9789
RightForeArm  -1.59527 24.7095 5.37215
RightHand  0.00540944 5.36151 -0.256226
LeftUpLeg  -18.4438 3.7026 3.65152
LeftLeg  12.7733 -2.45645 -0.368453
LeftFoot  2.35206 0.930215 -7.85874
LeftToes  -1.9349e-011 -1.19469e-011 -2.02219e-012
1887
root  4.15532 39.2414 59.1461 -177.767 -18.9241 175.521
RightUpLeg  3.80399 -2.33383 3.17502
RightLeg  9.05127 -3.21496 -1.49602
RightFoot  -15.3803 -0.291219 -5.30861
RightToes  -1.11029e-010 1.2921e-014 -6.02303e-014
Spine  6.13773 0.397039 5.35098
Spine1  -1.33648 1.4319 -4.75489
HEad  -6.79771 -16.671 0.152039
LeftShoulder1  1.54875 -0.49355 -32.6955
LeftArm  4.20483 12.3166 -29.0094
LeftForeArm  6.46402 -6.77439 -15.8898
LeftHand  0.238844 0.0214112 -5.21075
RightShoulder  9.52965 12.7245 51.4033
RightArm  41.948 5.09816 18.4683
RightForeArm  -2.39617 24.0642 5.26856
RightHand  0.0152448 5.62521 -0.161653
LeftUpLeg  -17.3464 4.00869 2.82657
LeftLeg  3.01941 -2.79832 -1.99061
LeftFoot  2.23487 1.4143 -11.9625
LeftToes  -1.9349e-011 -1.19469e-011 -2.02219e-012
1888
root  3.6243 39.2103 58.4414 -177.688 -18.1151 175.5
RightUpLeg  5.32906 -2.34181 2.58547
RightLeg  8.56633 -2.34476 -1.63296
RightFoot  -16.2396 -0.295221 -4.33457
RightToes  -1.11029e-010 1.2921e-014 -6.02303e-014
Spine  5.8811 0.122169 4.38015
Spine1  -0.815886 1.06597 -4.47564
HEad  -7.60852 -15.8149 0.601419
LeftShoulder1  1.57354 -0.556671 -32.7047
LeftArm  3.94131 11.852 -29.1799
LeftForeArm  7.2529 -6.11635 -16.1184
LeftHand  0.258245 -0.0268351 -5.57628
RightShoulder  9.43114 12.593 51.2907
RightArm  43.3491 5.05297 18.2794
RightForeArm  -3.96113 22.705 5.44072
RightHand  -0.0152972 5.53964 -0.481896
LeftUpLeg  -16.9172 4.13449 2.013
LeftLeg  -2.54422 -0.78054 -3.51353
LeftFoot  1.74446 1.72371 -15.0503
LeftToes  -1.9349e-011 -1.19469e-011 -2.02219e-012
1889
root  3.02769 39.0698 57.6428 -177.947 -17.3978 175.605
RightUpLeg  6.77297 -2.34521 2.14006
RightLeg  9.32691 -1.27975 -1.90763
RightFoot  -17.6765 -0.33558 -3.90337
RightToes  -1.11029e-010 1.2921e-014 -6.02303e-014
Spine  5.73054 -0.0531877 3.58799
Spine1  -0.414669 0.767668 -3.97729
HEad  -7.71843 -15.231 0.878049
LeftShoulder1  1.60164 -0.632189 -32.6777
LeftArm  3.69847 11.3805 -29.4494
LeftForeArm  8.10351 -5.59542 -16.2671
LeftHand  0.255787 -0.0237976 -5.52678
RightShoulder  9.24276 12.2033 51.5114
RightArm  41.9244 5.04167 17.4446
RightForeArm  -2.72228 20.0332 7.44479
RightHand  -0.0239087 5.49096 -0.572986
LeftUpLeg  -16.931 3.48427 0.663042
LeftLeg  -2.84243 3.35622 -3.82376
LeftFoot  2.85998 1.85871 -14.9906
LeftToes  -1.9349e-011 -1.19469e-011 -2.02219e-012
